<svg width="1920" height="1080" viewBox="0 0 1920 1080" fill="none" xmlns="http://www.w3.org/2000/svg">
  <!-- Stat-template furniture, variant: dark. Reconstructed from p58
       (Placements). Grid + warm accent curves only; hero/supporting stat copy
       and any optional photo are supplied by the renderer. No text, no photo. -->
  <rect width="1920" height="1080" fill="#0E0E10"/>
  <g id="grid" opacity="0.12" stroke="#A3A3A3" stroke-width="1">
    <line x1="60.00" y1="0" x2="60.00" y2="1080"/>
    <line x1="120.00" y1="0" x2="120.00" y2="1080"/>
    <line x1="180.00" y1="0" x2="180.00" y2="1080"/>
    <line x1="240.00" y1="0" x2="240.00" y2="1080"/>
    <line x1="300.00" y1="0" x2="300.00" y2="1080"/>
    <line x1="360.00" y1="0" x2="360.00" y2="1080"/>
    <line x1="420.00" y1="0" x2="420.00" y2="1080"/>
    <line x1="480.00" y1="0" x2="480.00" y2="1080"/>
    <line x1="540.00" y1="0" x2="540.00" y2="1080"/>
    <line x1="600.00" y1="0" x2="600.00" y2="1080"/>
    <line x1="660.00" y1="0" x2="660.00" y2="1080"/>
    <line x1="720.00" y1="0" x2="720.00" y2="1080"/>
    <line x1="780.00" y1="0" x2="780.00" y2="1080"/>
    <line x1="840.00" y1="0" x2="840.00" y2="1080"/>
    <line x1="900.00" y1="0" x2="900.00" y2="1080"/>
    <line x1="960.00" y1="0" x2="960.00" y2="1080"/>
    <line x1="1020.00" y1="0" x2="1020.00" y2="1080"/>
    <line x1="1080.00" y1="0" x2="1080.00" y2="1080"/>
    <line x1="1140.00" y1="0" x2="1140.00" y2="1080"/>
    <line x1="1200.00" y1="0" x2="1200.00" y2="1080"/>
    <line x1="1260.00" y1="0" x2="1260.00" y2="1080"/>
    <line x1="1320.00" y1="0" x2="1320.00" y2="1080"/>
    <line x1="1380.00" y1="0" x2="1380.00" y2="1080"/>
    <line x1="1440.00" y1="0" x2="1440.00" y2="1080"/>
    <line x1="1500.00" y1="0" x2="1500.00" y2="1080"/>
    <line x1="1560.00" y1="0" x2="1560.00" y2="1080"/>
    <line x1="1620.00" y1="0" x2="1620.00" y2="1080"/>
    <line x1="1680.00" y1="0" x2="1680.00" y2="1080"/>
    <line x1="1740.00" y1="0" x2="1740.00" y2="1080"/>
    <line x1="1800.00" y1="0" x2="1800.00" y2="1080"/>
    <line x1="1860.00" y1="0" x2="1860.00" y2="1080"/>
    <line x1="0" y1="60.00" x2="1920" y2="60.00"/>
    <line x1="0" y1="120.00" x2="1920" y2="120.00"/>
    <line x1="0" y1="180.00" x2="1920" y2="180.00"/>
    <line x1="0" y1="240.00" x2="1920" y2="240.00"/>
    <line x1="0" y1="300.00" x2="1920" y2="300.00"/>
    <line x1="0" y1="360.00" x2="1920" y2="360.00"/>
    <line x1="0" y1="420.00" x2="1920" y2="420.00"/>
    <line x1="0" y1="480.00" x2="1920" y2="480.00"/>
    <line x1="0" y1="540.00" x2="1920" y2="540.00"/>
    <line x1="0" y1="600.00" x2="1920" y2="600.00"/>
    <line x1="0" y1="660.00" x2="1920" y2="660.00"/>
    <line x1="0" y1="720.00" x2="1920" y2="720.00"/>
    <line x1="0" y1="780.00" x2="1920" y2="780.00"/>
    <line x1="0" y1="840.00" x2="1920" y2="840.00"/>
    <line x1="0" y1="900.00" x2="1920" y2="900.00"/>
    <line x1="0" y1="960.00" x2="1920" y2="960.00"/>
    <line x1="0" y1="1020.00" x2="1920" y2="1020.00"/>
  </g>
  <path d="M-40 470 C 220 470, 300 720, 470 900 S 760 1120, 1000 1140" stroke="url(#warm)" stroke-width="7" fill="none" stroke-linecap="round" opacity="0.95"/>
  <path d="M1980 120 C 1740 150, 1620 300, 1560 470" stroke="url(#warm)" stroke-width="6" fill="none" stroke-linecap="round" opacity="0.6"/>
  <defs><linearGradient id="warm" x1="0" y1="1080" x2="1720" y2="120" gradientUnits="userSpaceOnUse"><stop stop-color="#E38330"/><stop offset="0.55" stop-color="#F7D344"/><stop offset="1" stop-color="#F7D344" stop-opacity="0"/></linearGradient></defs>
</svg>
